<svg width="588" height="97" viewBox="0 0 588 97" fill="none" xmlns="http://www.w3.org/2000/svg">
<path d="M527.837 26.728H565.341C582.877 26.728 587.485 32.232 587.485 47.72V59.88C587.485 65.384 585.181 67.176 580.189 67.176H515.549V70.248C515.549 78.312 518.493 81.64 529.629 81.64H583.005C584.541 81.64 585.309 82.408 585.309 83.944V94.696C585.309 96.232 584.541 97 583.005 97H527.837C504.797 97 497.373 89.704 497.373 71.144V52.712C497.373 34.152 504.797 26.728 527.837 26.728ZM515.549 52.328V55.784H567.389C568.925 55.784 569.565 55.272 569.565 53.608V48.232C569.565 42.984 567.645 40.936 561.757 40.936H529.629C518.493 40.936 515.549 44.136 515.549 52.328Z" fill="white"/>
<path d="M417.144 26.728H453.88C476.92 26.728 484.344 34.152 484.344 52.712V94.184C484.344 96.104 483.448 97 481.528 97H468.984C467.064 97 466.168 96.104 466.168 94.184V57.064C466.168 46.312 463.992 42.984 452.984 42.984H418.936C407.928 42.984 404.984 46.312 404.984 57.064V94.184C404.984 96.104 404.088 97 402.168 97H389.624C387.704 97 386.68 96.104 386.68 94.184V52.712C386.68 34.152 394.104 26.728 417.144 26.728Z" fill="white"/>
<path d="M355.508 26.7279H368.052C369.972 26.7279 370.868 27.7519 370.868 29.6719V94.1839C370.868 96.1039 369.972 96.9999 368.052 96.9999H355.508C353.588 96.9999 352.692 96.1039 352.692 94.1839V29.6719C352.692 27.7519 353.588 26.7279 355.508 26.7279ZM355.508 0.743896H368.052C369.972 0.743896 370.868 1.63989 370.868 3.5599V15.7199C370.868 17.6399 369.972 18.6639 368.052 18.6639H355.508C353.588 18.6639 352.564 17.6399 352.564 15.7199V3.5599C352.564 1.63989 353.588 0.743896 355.508 0.743896Z" fill="white"/>
<path d="M279.212 26.728H316.716C334.252 26.728 338.86 32.232 338.86 47.72V59.88C338.86 65.384 336.556 67.176 331.564 67.176H266.924V70.248C266.924 78.312 269.868 81.64 281.004 81.64H334.38C335.916 81.64 336.684 82.408 336.684 83.944V94.696C336.684 96.232 335.916 97 334.38 97H279.212C256.172 97 248.748 89.704 248.748 71.144V52.712C248.748 34.152 256.172 26.728 279.212 26.728ZM266.924 52.328V55.784H318.764C320.3 55.784 320.94 55.272 320.94 53.608V48.232C320.94 42.984 319.02 40.936 313.132 40.936H281.004C269.868 40.936 266.924 44.136 266.924 52.328Z" fill="white"/>
<path d="M203.144 26.728H238.984C240.52 26.728 241.288 27.496 241.288 29.032V39.784C241.288 41.448 240.52 42.088 238.984 42.088H204.936C193.928 42.088 190.984 45.416 190.984 56.168V94.184C190.984 96.104 190.088 97 188.168 97H175.624C173.704 97 172.68 96.104 172.68 94.184V52.712C172.68 34.152 180.104 26.728 203.144 26.728Z" fill="white"/>
<path d="M141.508 1H154.052C155.972 1 156.868 1.896 156.868 3.816V94.184C156.868 96.104 155.972 97 154.052 97H141.508C139.588 97 138.692 96.104 138.692 94.184V3.816C138.692 1.896 139.588 1 141.508 1Z" fill="white"/>
<path d="M107.008 1H119.552C121.472 1 122.368 1.896 122.368 3.816V94.184C122.368 96.104 121.472 97 119.552 97H107.008C105.088 97 104.192 96.104 104.192 94.184V3.816C104.192 1.896 105.088 1 107.008 1Z" fill="white"/>
<path d="M30.712 26.728H68.216C85.7521 26.728 90.3601 32.232 90.3601 47.72V59.88C90.3601 65.384 88.0561 67.176 83.064 67.176H18.424V70.248C18.424 78.312 21.368 81.64 32.504 81.64H85.8801C87.4161 81.64 88.1841 82.408 88.1841 83.944V94.696C88.1841 96.232 87.4161 97 85.8801 97H30.712C7.67205 97 0.248047 89.704 0.248047 71.144V52.712C0.248047 34.152 7.67205 26.728 30.712 26.728ZM18.424 52.328V55.784H70.264C71.8 55.784 72.44 55.272 72.44 53.608V48.232C72.44 42.984 70.5201 40.936 64.632 40.936H32.504C21.368 40.936 18.424 44.136 18.424 52.328Z" fill="white"/>
</svg>
