<svg width="240" height="229" viewBox="0 0 240 229" fill="none" xmlns="http://www.w3.org/2000/svg">
<path d="M240 117.846L198.132 228.748L167.645 228.541L128.785 165.266L116.492 185.228L103.125 154.77L127.784 113.454L128.782 112.498L180.652 198.776L210.415 117.846H240Z" fill="white"/>
<path d="M0 228.746L46.2008 118.125L72.2704 118.502L118.125 228.746L89.5608 228.586L79.4185 202.054L38.2211 202.114L28.5498 228.75H0V228.746ZM72.0883 180.735L59.0661 145.177L45.6833 180.379L72.0883 180.735Z" fill="white"/>
<path d="M183.749 99.375H154.199L127.677 55.1671L100.798 99.375H71.2485L127.324 0L183.749 99.375Z" fill="white"/>
</svg>
